<?xml version="1.0" standalone="no"?>
<svg xmlns="http://www.w3.org/2000/svg" viewBox="0 0 84.288 29" width="84.288" height="29"><g fill="#0602ff" color="#0602ff" transform="translate(0, 0) scale(0.29)"><svg width="100.0" height="100.0" x="0.0" y="0.0" viewBox="0 0 100 100"><title></title><path d="M82.07678,72.7135a25.0065,25.0065,0,1,0-6.3678,6.35968L87.31781,90.68164a4.49986,4.49986,0,0,0,6.36426-6.36328ZM50.187,69.82031a16.00366,16.00366,0,1,1,22.63232,0A15.90158,15.90158,0,0,1,50.187,69.82031Zm21.69287-42.5a2.49981,2.49981,0,0,0,2.5-2.5V13.59961A8.61422,8.61422,0,0,0,65.77,5H32.02972a8.54817,8.54817,0,0,0-6.0874,2.52246L7.5224,25.94238a8.55217,8.55217,0,0,0-2.52246,6.08789V86.40039A8.60932,8.60932,0,0,0,13.6,95H71.87982a2.5,2.5,0,0,0,0-5H13.6a3.60437,3.60437,0,0,1-3.6001-3.59961V32.03027c.00317-.03222,13.3999-.03222,13.3999-.03222a8.61016,8.61016,0,0,0,8.6001-8.60059V10.00293C32.02972,10,65.77,10,65.77,10a3.609,3.609,0,0,1,3.60986,3.59961v11.2207A2.49981,2.49981,0,0,0,71.87982,27.32031Zm-48.48-.32226H13.53711L26.99994,13.53558v9.86188A3.60459,3.60459,0,0,1,23.39984,26.99805Z"></path></svg></g><line x1="41" y1="1" x2="41" y2="28" stroke="#0602ff" stroke-linecap="round"></line><path fill="#0602ff" fill-rule="nonzero" d="M9.67 12.36L12.55 0L18.96 0L18.96 0.46L17.64 0.46L17.64 16.34L18.96 16.34L18.96 16.80L11.64 16.80L11.64 16.34L12.96 16.34L12.96 1.34L12.86 1.34L9.26 16.80L6.26 16.80L2.04 1.27L1.94 1.27L1.94 16.34L3.26 16.34L3.26 16.80L0 16.80L0 16.34L1.32 16.34L1.32 0.46L0 0.46L0 0L6.48 0L9.67 12.36ZM21.10 0L32.98 0L32.98 0.53L25.87 16.25L26.69 16.25Q28.85 16.25 30.49 14.87Q32.14 13.49 32.86 10.94L32.86 10.94L33.29 10.94L33 16.80L20.71 16.80L20.71 16.34L27.89 0.53L26.90 0.53Q24.77 0.53 23.66 1.46Q22.56 2.40 21.17 5.30L21.17 5.30L20.74 5.30L21.10 0Z" transform="translate(51, 6.1)"></path></svg>